<?xml version="1.0" encoding="utf-8"?>
<!-- Generator: Adobe Illustrator 16.0.0, SVG Export Plug-In . SVG Version: 6.00 Build 0)  -->
<!DOCTYPE svg PUBLIC "-//W3C//DTD SVG 1.1//EN" "http://www.w3.org/Graphics/SVG/1.1/DTD/svg11.dtd">
<svg version="1.1" id="_x2018_饑x5F_1" xmlns="http://www.w3.org/2000/svg" xmlns:xlink="http://www.w3.org/1999/xlink" x="0px"
	 y="0px" width="3200px" height="2000px" viewBox="0 0 3200 2000" style="enable-background:new 0 0 3200 2000;"
	 xml:space="preserve">
<style type="text/css">
<![CDATA[
	.st0{fill:#7A9EDD;}
	.st1{fill:#485CA6;}
	.st2{fill:#ADCBFF;}
	.st3{fill:#AEC3FF;}
	.st4{fill:#AFCDFB;}
	.st5{fill:#EBF3FA;}
	.st6{fill:#ED7D2B;}
	.st7{fill:#ED985F;}
	.st8{fill:#EEF6FF;}
	.st9{fill:#EF7E29;}
	.st10{fill:#213F7A;}
	.st11{fill:#233862;}
	.st12{fill:#F4A671;}
	.st13{fill:#F99746;}
	.st14{fill:#F9DDBF;}
	.st15{fill:#C0783D;}
	.st16{fill:#94B0ED;}
	.st17{fill:#2A4E96;}
	.st18{fill:#C5DBFF;}
	.st19{fill:#2C3A64;}
	.st20{fill:#2E3552;}
	.st21{opacity:0.4;}
	.st22{fill:#FFA969;}
	.st23{fill:#FFB27D;}
	.st24{fill:#FFFFFF;}
	.st25{fill:#CADAFF;}
	.st26{fill:#D4E4F8;}
	.st27{fill:#739CF3;}
	.st28{fill:#789CDD;}
	.st29{fill:#A9453D;}
	.st30{opacity:0.6;fill:#94B0ED;}
	.st31{fill:#DFEBFA;}
]]>
</style>
<rect class="st24" width="3200" height="2000"/>
<g>
	<path class="st5" d="M3059.2,1311.6c-1.3-48.6-8.6-87.3-20.4-118.4c-18.8-49.7-49-80.2-84.2-101c-5.4-3.2-10.9-6.2-16.5-8.9
		c-2.3-1.1-4.6-2.3-7-3.3c-10.4-4.8-21-9-31.8-12.8c-5.6-2-11.2-3.9-16.9-5.7c-2.2-0.7-4.3-1.4-6.5-2c-18.8-5.8-37.7-11-56-16.5
		c-6.7-2-13.3-4.1-19.7-6.3c-6.2-2.1-12.4-4.3-18.4-6.6c-10.7-4.2-21-8.8-30.7-14.2c-0.6-0.3-1.3-0.7-1.9-1.1
		c-2.7-1.5-5.3-3.1-7.9-4.7c-15.9-10.1-29.8-22.6-40.9-38.9c-0.6-0.9-1.2-1.7-1.7-2.6c-1.5-2.3-3-4.7-4.3-7.2
		c-8.7-15.6-15.1-34.2-18.6-56.8c-1.4-9.1-2.3-18.8-2.7-29.2c-6.2-160.1-169.8-524-621.5-450c-20.1,3.3-40.8,7.5-62,12.5
		c-11.6,2.8-23.5,5.8-35.4,9.2c-367.1,102.5-275.5,270.8-794.4,187.1c-19.8-3.2-40.4-6.7-62-10.7c-7-1.3-14-2.6-21.2-3.9
		C942.7,594.3,573.5,587,307.4,854.7c-6.5,6.5-12.7,13.1-18.7,19.8c-8.9,10-17.2,20.1-25,30.3c-0.6,0.8-1.2,1.5-1.7,2.3
		c-10.3,13.7-19.5,27.7-27.9,41.8c0,0,0,0,0,0c-3.3,5.6-6.5,11.2-9.5,16.9c-2.7,5-5.2,9.9-7.6,14.9c-9.3,19-17.1,38.4-23.5,57.9
		c-1.4,4.4-2.8,8.7-4.1,13.1c-0.9,3.2-1.9,6.3-2.7,9.5c-1.1,4.1-2.2,8.3-3.3,12.4c-0.7,2.9-1.4,5.7-2,8.6c-0.4,1.9-0.8,3.7-1.2,5.6
		c-1.2,5.4-2.3,10.8-3.2,16.2c-1.9,10.6-3.5,21.3-4.8,32c-1.9,15.9-3.1,31.8-3.6,47.7c-0.2,6.9-0.4,13.8-0.4,20.7
		c0,122.9,36.6,242.4,75.2,334.3c3.3,7.9,6.6,15.5,9.9,22.9c0.6,1.2,1.1,2.5,1.7,3.7c0.7,1.5,1.4,3,2,4.5h5.1c0,0.1,0.1,0.1,0.1,0.2
		l0.2,0.4v-0.6h2764.9c0.6-2.7,1.2-5.5,1.8-8.2C3052,1457.3,3060.9,1375.8,3059.2,1311.6z"/>
	<g>
		<path class="st31" d="M3038.8,1193.2c-18.8-49.7-49-80.2-84.2-101c-5.4-3.2-10.9-6.2-16.5-8.9c-2.3-1.1-4.6-2.3-7-3.3
			c-10.4-4.8-21-9-31.8-12.8l-23.4-7.7c-18.8-5.8-37.7-11-56-16.5c-6.7-2-13.3-4.1-19.7-6.3c-6.2-2.1-12.4-4.3-18.4-6.6
			c-10.7-4.2-21-8.8-30.7-14.2c-0.6-0.3-1.3-0.7-1.9-1.1c-2.7-1.5-5.3-3.1-7.9-4.7c-15.9-10.1-29.8-22.6-40.9-38.9
			c-0.6-0.9-1.2-1.7-1.7-2.6c-1.5-2.3-3-4.7-4.3-7.2c-8.7-15.6-15.1-34.2-18.6-56.8h-73v101.9h-51.7v25.7h-55.8v-44.2H2395V867.8
			h-15.7v-12h-2.3v12h-13v0H2299v-11.9h-2.3v11.9h-17v60.4l-84.3-0.3v37.3H2124V734.6h-211.7v247h-64.7V848h-211.7v721.8h1388.8
			c0.4-1.9,0.8-3.9,1.2-5.8c0.2-0.8,0.3-1.6,0.5-2.4c1.6-7.8,3.2-15.4,4.7-22.9c18-90.9,26.7-165.5,28.1-227.2
			C3057.9,1263,3050.6,1224.3,3038.8,1193.2z"/>
		<polygon class="st31" points="1636.1,1569.9 1636.1,1561.7 1636.1,1005.3 1635.9,1005.3 1533.1,1005.3 1529.8,1005.3 
			1529.8,1561.7 1529.8,1569.9 1541,1569.9 1635.9,1569.9 		"/>
		<rect x="2628.6" y="857" class="st31" width="3.9" height="48.4"/>
		<rect x="1926.3" y="717.3" class="st31" width="2.5" height="17.3"/>
		<rect x="1979.9" y="717.3" class="st31" width="2.5" height="17.3"/>
		<rect x="2102.8" y="717.3" class="st31" width="2.5" height="17.3"/>
		<rect x="2054.8" y="717.3" class="st31" width="2.5" height="17.3"/>
	</g>
	<g>
		<path class="st31" d="M1540.9,1561.7l-7.8-556.3l-1.2-84.5H1476v-111c-0.9-0.4-1.7-0.9-2.6-1.3h-16.7v-0.1h-96.9v0.1h-0.1v16.6
			h0.1v11.4h-0.1v16.6h0.1v11.5h-0.1v16.6h0.1v0.1l-10.3-0.1v-87.1h-108.8v11h-0.1v16.6h0.1v14.6h-0.1v16.6h0.1v11.5h-0.1v16.6h0.1
			v10.6h-0.1v16.6h0.1v10.6h-0.1v16.6h0.1v10h-0.1v10.6h0.1v1.2h-122.6v95.2h-45.8v24H1023v-41.3h-88.8V923.2h-13.9v-11.2h-2v11.2
			h-11.5v0h-57.6v-11.2h-2v11.2h-15v56.5l-74.6-0.3v34.8h-63.3V798.8H506.8v230.7h-57.2V904.8H262.1v665.3l0.2,0.4v-0.6H1541
			L1540.9,1561.7z"/>
		<path class="st31" d="M262.2,1051.8v518.7l-0.2-0.4c0-0.1-0.1-0.1-0.1-0.2c-1.2-2.7-2.3-5.4-3.5-8.2c-41.4-98.2-85.7-235.1-90-378
			c0.9-26.5,3.6-53.2,8.4-79.7c3.2-17.5,7.3-34.9,12.5-52.3H262.2z"/>
		<rect x="555" y="798.8" class="st8" width="139.2" height="36.5"/>
		<rect x="555" y="855" class="st8" width="139.2" height="36.5"/>
		<rect x="555" y="912.4" class="st8" width="139.2" height="36.5"/>
		<rect x="555" y="970.7" class="st8" width="139.2" height="36.5"/>
		<rect x="555" y="1026.9" class="st8" width="139.2" height="36.5"/>
		<g>
			<rect x="1240.8" y="794.3" class="st8" width="69.6" height="22.2"/>
			<rect x="1240.8" y="828.4" class="st8" width="69.6" height="22.2"/>
			<rect x="1240.8" y="863.2" class="st8" width="69.6" height="22.2"/>
			<rect x="1240.8" y="898.6" class="st8" width="69.6" height="22.2"/>
			<rect x="1240.8" y="932.8" class="st8" width="69.6" height="22.2"/>
		</g>
		<g>
			<rect x="1240.8" y="970.4" class="st8" width="69.6" height="22.2"/>
			<rect x="1240.8" y="1004.5" class="st8" width="69.6" height="22.2"/>
			<rect x="1240.8" y="1039.3" class="st8" width="69.6" height="22.2"/>
			<rect x="1240.8" y="1074.7" class="st8" width="69.6" height="22.2"/>
			<rect x="1240.8" y="1108.9" class="st8" width="69.6" height="22.2"/>
		</g>
		<g>
			<rect x="1359.9" y="808.8" class="st8" width="69.6" height="22.2"/>
			<rect x="1359.9" y="842.9" class="st8" width="69.6" height="22.2"/>
			<rect x="1359.9" y="877.8" class="st8" width="69.6" height="22.2"/>
			<rect x="1359.9" y="913.2" class="st8" width="69.6" height="22.2"/>
			<rect x="1359.9" y="947.3" class="st8" width="69.6" height="22.2"/>
		</g>
		<rect x="1141" y="913.2" class="st31" width="3.5" height="45.2"/>
		<rect x="1199.2" y="874.3" class="st31" width="5.4" height="87.6"/>
		<rect x="519.2" y="782.7" class="st31" width="2.2" height="16.1"/>
		<rect x="566.7" y="782.7" class="st31" width="2.2" height="16.1"/>
		<rect x="675.4" y="782.7" class="st31" width="2.2" height="16.1"/>
		<rect x="1251.6" y="781.8" class="st31" width="1.7" height="12.5"/>
		<rect x="1333.2" y="781.8" class="st31" width="1.7" height="12.5"/>
		<rect x="632.9" y="782.7" class="st31" width="2.2" height="16.1"/>
		<g>
			<rect x="1913.3" y="756.1" class="st8" width="138.2" height="28.2"/>
			<rect x="1913.3" y="799.4" class="st8" width="138.2" height="28.2"/>
			<rect x="1913.3" y="843.7" class="st8" width="138.2" height="28.2"/>
			<rect x="1913.3" y="888.6" class="st8" width="138.2" height="28.2"/>
			<rect x="1913.3" y="932" class="st8" width="138.2" height="28.2"/>
		</g>
		<g class="st21">
			<rect x="1703" y="861.1" class="st8" width="144.2" height="32.9"/>
			<rect x="1703" y="911.7" class="st8" width="144.2" height="32.9"/>
			<rect x="1703" y="963.3" class="st8" width="144.2" height="32.9"/>
			<rect x="1703" y="1015.7" class="st8" width="144.2" height="32.9"/>
			<rect x="1703" y="1066.3" class="st8" width="144.2" height="32.9"/>
		</g>
	</g>
	<path class="st4" d="M3031,1538.7c-1.5,7.5-3,15.2-4.7,22.9c-0.2,0.8-0.3,1.6-0.5,2.4l-8.1,0l-909.8,1.3H254.8
		c-0.5-1.2-1.1-2.5-1.7-3.7c-3.3-7.4-6.6-15.1-9.9-22.9H3031z"/>
	<polygon class="st26" points="1005,610.6 1005,1548 974,1548 974,608.8 	"/>
	<polygon class="st26" points="2130.6,416.6 2130.6,1548 2099.6,1548 2099.6,419.1 	"/>
	<g>
		<g>
			<path class="st16" d="M487.7,1543.6c-5.5,0-10.7-3.4-12.8-8.9l-132.5-359.4c-2.6-7.1,1-14.9,8.1-17.5c7-2.6,14.9,1,17.5,8.1
				l132.5,359.4c2.6,7.1-1,14.9-8.1,17.5C490.8,1543.4,489.2,1543.6,487.7,1543.6z"/>
		</g>
		<g>
			<path class="st16" d="M588.4,1543.6c-5.5,0-10.7-3.4-12.8-8.9l-132.5-359.4c-2.6-7.1,1-14.9,8.1-17.5c7-2.6,14.9,1,17.5,8.1
				l132.5,359.4c2.6,7.1-1,14.9-8.1,17.5C591.6,1543.4,590,1543.6,588.4,1543.6z"/>
		</g>
		<polygon class="st16" points="484.7,1236 377.8,1245.5 346,1170.6 458.8,1166.5 		"/>
		<path class="st16" d="M1037.7,1562.7H407.8c-12,0-21.8-9.8-21.8-21.8l0,0c0-12,9.8-21.8,21.8-21.8h629.9c12,0,21.8,9.8,21.8,21.8
			l0,0C1059.4,1552.9,1049.6,1562.7,1037.7,1562.7z"/>
		<g>
			<path class="st16" d="M564.4,1301.3H396.9c-3,0-5.4-2.4-5.4-5.4c0-3,2.4-5.4,5.4-5.4h166.9l35.1-6.8H496.3c-3,0-5.4-2.4-5.4-5.4
				c0-3,2.4-5.4,5.4-5.4h159.3c2.8,0,5.2,2.1,5.4,4.9s-1.6,5.3-4.4,5.9l-91.2,17.7C565.1,1301.3,564.7,1301.3,564.4,1301.3z"/>
		</g>
	</g>
	<g>
		<path class="st3" d="M2918.6,997.8l-37.5,473.5l-0.2,3.1c-1.9,23.9-23,41.8-46.8,39.9l-86.3-6.8c-23.9-1.9-41.8-23-40-46.8
			l37.7-476.7c1.9-23.9,23-41.8,46.8-40l39.6,3.1l46.7,3.7C2902.5,952.9,2920.5,973.9,2918.6,997.8z"/>
		<path class="st16" d="M2909,1472v70.2c0,11.6-9.5,21.1-21.1,21.1h-187.6c-11.6,0-21.1-9.5-21.1-21.1V1472
			c0-11.6,9.5-21.1,21.1-21.1h187.6C2899.5,1450.9,2909,1460.4,2909,1472z"/>
		<path class="st30" d="M2918.6,997.8l-37.5,473.5c-25.8-3.3-49.6-20.5-49.6-20.5s27.8-346.2,35.7-423.7c6.3-61.7-23-76.4-35.3-79.9
			l46.7,3.7C2902.5,952.9,2920.5,973.9,2918.6,997.8z"/>
	</g>
	<g>
		<g id="man_1_">
			<path class="st9" d="M2017,1458.1v98c0,4.4-3.6,7.9-7.9,7.9h-119.2c-4.4,0-7.9-3.6-7.9-7.9v-98c0-4.4,3.6-7.9,7.9-7.9h119.2
				C2013.5,1450.2,2017,1453.7,2017,1458.1z"/>
			<path class="st13" d="M2061.6,1564h-119.2c-4.4,0-7.9-3.6-7.9-7.9v-98c0-4.4,3.6-7.9,7.9-7.9h119.2c4.4,0,7.9,3.6,7.9,7.9v98
				C2069.6,1560.4,2066,1564,2061.6,1564z"/>
			<path class="st23" d="M1935.5,1255.6c-4.1,7.4-14.2,11.8-26.2,15.1c-1.3,0.4-2.7,0.7-4.1,1.1c-21,5.2-49.2,2.2-57.3,13.2
				c-9.1,12.1-19.8,75.9-19.8,75.9c-13,5.2-12.8,2.6-12.8,2.6c-4-17.2-4.3-69.6-3.3-84.1c1.1-16.6,35.1-39.8,64.4-56.9
				c22.4-13,42-22.4,42-22.4c0.6,0.1,1.2,0.3,1.8,0.4C1945.9,1207,1946.7,1235.1,1935.5,1255.6z"/>
			<path class="st9" d="M1920.1,1200.4c-2.8,23.2-7.2,57.5-10.8,70.2c-1.3,0.4-2.7,0.7-4.1,1.1c0,0,0,0,0,0
				c-4-24.3-24.5-45-28.9-49.2c22.4-13,42-22.4,42-22.4C1918.9,1200.1,1919.5,1200.3,1920.1,1200.4z"/>
			<path class="st23" d="M1954.6,1185.8c0,0-30.9,33.9-55.8,35.6c0,0,2.7-9.1,10.2-18.1c-1.2-2.1-2.4-4-3.4-5.8
				c-5.9-10.5-8.5-16.8-8.5-16.8l19.9-33.6c0.5,1.2,0.9,2.4,1.4,3.6c1.1,2.5,2.2,4.9,3.5,7.1c0.6,1.1,1.2,2.1,1.9,3.1
				C1936.5,1180.8,1954.6,1185.8,1954.6,1185.8z"/>
			<path class="st12" d="M1905.6,1197.5c-5.9-10.5-8.5-16.8-8.5-16.8l19.9-33.6c0.5,1.2,0.9,2.4,1.4,3.6
				C1920.6,1159.3,1923.3,1180.2,1905.6,1197.5z"/>
			<path class="st23" d="M1893.1,1185.5c0,0,35.2-18.6,23.3-40.3s-15.4-38.8-38.4-27.9c-23,10.9-22.8,21.6-20.6,29.8
				C1859.7,1155.4,1883.6,1189.8,1893.1,1185.5z"/>
			<path class="st19" d="M1917.2,1146.7c0,0-20.5-25.7-52.2-8.2c-21.7,12-22.3-13.3-22-17.6c0,0,17.1-8.5,34.9-16.8
				C1915.3,1086.8,1917.7,1140.2,1917.2,1146.7z"/>
			<path class="st23" d="M1958.1,1378.6c-1-0.9-1.7-1.8-1.9-2.5c-0.4-1.2-18.8-1-57.8-107.7c-6.8-18.6-2.3-46.5,4.5-58.4l5-8.3
				c8.3-0.9,17.2-5.1,24.1-11.8c1.9-1.8,4.2-3.1,6.6-3.8c7-2.3,14.6-0.7,16.1-0.3c26.1,9.1,46.4,46.6,60.5,101.8
				c8.8,34.8,21,55.7,29.3,85.7c2.5,9,4.6,18.8,6.2,30.1C2052.1,1413.7,1971.9,1390.8,1958.1,1378.6z"/>
			<path class="st12" d="M1965.8,1424.6c-9.3,1.2-22.8,1.3-37.6,0.8c-40.4-1.2-91-5.8-93.9,2.2c-19.4,52.1-89,93.1-90.2,112.5
				c0.2,1.3-17.7-8.3-17.1-8.7c0,0,5.7-2.4,61.9-155.2c5.2-14,63.8-19.4,99.3-22.2c22.7-1.8,40.3-2.5,40.3-2.5s24.2-4,48.9-2.3
				C2002.1,1350.9,2000.4,1420,1965.8,1424.6z"/>
			<path class="st23" d="M1815.3,1363.4c0,0,17.5,6.3,25,2.6c7.5-3.7,0.9-13.4-4-13.4C1831.3,1352.6,1820.3,1352.8,1815.3,1363.4z"
				/>
			<path class="st10" d="M1975.6,1424.6c-9.3,1.2-22.8,1.3-37.6,0.8c3.6-11.7,13.2-32.8-0.9-48.5c0,0-15.3-21.1-27.6-24.5
				c22.7-1.8,28.7-1,28.7-1s24.2-4,48.9-2.3C2011.9,1350.9,2010.2,1420,1975.6,1424.6z"/>
			<path class="st13" d="M2044.4,1373.4l-0.4,0.3l-86,4.9c-1-0.9-1.7-1.8-1.9-2.5c-0.1-0.2-0.6-0.4-1.5-0.9
				c-2.7-1.6-9.2-6.2-19.5-23.7c-9.1-15.4-21.4-40.9-36.8-83.1c-6.8-18.6-2.3-46.5,4.5-58.4c0,0,4.9,2.7,11.1-0.3
				c14.8-7.2,39.7-24.3,40.7-23.9c26.1,9.1,46.4,46.6,60.5,101.8C2023.9,1322.5,2036.1,1343.3,2044.4,1373.4z"/>
			<path class="st9" d="M1993.6,1267.8l-42.1,39.5l-25.7-39.6l9.5,83.8c10.3,17.4,16.7,22.1,19.5,23.7c23.8,1.3,58.4,0.8,61.1-13.3
				C2020,1340.1,1993.6,1267.8,1993.6,1267.8z"/>
			<path class="st23" d="M2031,1447.4c-77.3,18.4-149.5-27.3-152.2-14.2c-8.3,40.4-50.3,99-51.2,106c-0.1,1-18.5,2.6-18.5,2.6
				s18.1-142.8,33.4-161.3c15.8-19.1,157.7-11.4,157.7-11.4C2055.5,1358.1,2065.3,1439.2,2031,1447.4z"/>
			<path class="st10" d="M1940.2,1367.5c0,0,37.8,39.1,42,43s20.3,2.4,20.3,2.4s-17.6,2.3-17.6,5.4s11.2,35.2,15.4,35.2
				s35.4-1.9,42.9-5.6c7.5-3.7,17.2-45.2,2.1-78.3l-12.2-29.4C2033,1340.2,2015.8,1365.4,1940.2,1367.5z"/>
			<g>
				<path class="st16" d="M1940.9,1305.2c-3.5-12.9-17.1-20.4-30.5-16.8c-3.4,0.9-6.5,2.5-9.1,4.5l-5.3,3.8l0.6,0.8
					c-4.4,5.8-6.2,13.3-4.2,20.7c3.5,12.9,17.1,20.4,30.5,16.8c0.8-0.2,1.7-0.5,2.4-0.8l0.6,0.8l6-4.4l0,0
					C1939.6,1324.6,1943.4,1314.8,1940.9,1305.2z"/>
			</g>
			
				<ellipse transform="matrix(-0.9659 0.259 -0.259 -0.9659 4098.7729 2090.5125)" class="st3" cx="1911.7" cy="1315.3" rx="25.1" ry="24.1"/>
			<path class="st28" d="M1916.3,1315.1c-0.3-2.9-3.7-5.7-7.5-4.3c-1.5,0.6-41.8,25.8-41.8,25.8l8.6,10.7l39.1-27.9
				C1914.7,1319.3,1916.6,1318,1916.3,1315.1z"/>
			<path class="st23" d="M1995.3,1366.7c-18.2,18.2-101.6-33.6-101.6-33.6l9.4-16.4l54.4,12.7c-15.2-22.2-25.3-44.1-31.9-61.7
				c-8.5-22.8-11-38.5-11-38.5c-4.7-18.6,36.4-42.2,56.4-23.3c6.7,6.3,13.6,24.3,19.2,46.1
				C2001.5,1295.6,2007.4,1354.6,1995.3,1366.7z"/>
			<path class="st12" d="M1987.7,1242.4c-19.3,4.5-57.3,14.7-62,25.3c0,0,35.5-15.3,70.2,9.7L1987.7,1242.4z"/>
			<path class="st13" d="M1990.3,1252c-36.7-3.4-60.8,12.9-64.6,15.7c-8.5-22.8-11-38.5-11-38.5c-4.7-18.6,36.4-42.2,56.4-23.3
				C1977.8,1212.2,1984.7,1230.2,1990.3,1252z"/>
			<path class="st19" d="M1747.8,1563.5h-9.5c-3.2-0.5-5.6-1.4-8.8-1.9c-5-0.7-7.3,1.4-7.7,1.9c-0.1,0.1-0.1,0.1-0.1,0.1h-40.5
				c-1-1.5,0-4.8,0.9-7.3c0.6-1.7,2.1-3,3.8-3.5c4.3-1.2,12.8-2.4,20.5-9.4c4.4-3.9,21.1-14.5,21.1-14.5l0.1,0c0.4,0,2.1,0.5,9.7,7
				c3.9,3.3,10.6-4.7,10.6-4.7s1.3,1,2.2,3c0.8,1.5,1.3,3.6,0.9,6.2c-0.6,3.7,1.3,10.4,2.9,15c0.9,2.8,1.7,4.8,1.7,4.8
				S1756,1562.4,1747.8,1563.5z"/>
			<path class="st19" d="M1832.5,1563.4h-10.1c-3.4-0.5-5.9-1.5-9.3-2c-5.2-0.7-7.7,1.5-8.1,2c-0.1,0.1-0.1,0.1-0.1,0.1h-42.7
				c-1.1-1.5,0-5.1,1-7.7c0.7-1.8,2.2-3.1,4-3.7c4.5-1.3,13.5-2.5,21.6-9.9c4.6-4.2,22.2-15.3,22.2-15.3l0.1,0
				c0.4,0,2.2,0.6,10.2,7.3c4.1,3.5,11.2-4.9,11.2-4.9s1.3,1.1,2.3,3.1c0.8,1.6,1.4,3.8,0.9,6.6c-0.6,3.8,1.4,11,3.1,15.8
				c1,2.9,1.8,5,1.8,5S1841.1,1562.4,1832.5,1563.4z"/>
			<g>
				<path class="st16" d="M1910.1,1328.3c-3.8-14-18.6-22.2-33.1-18.3c-3.7,1-7.1,2.7-9.9,4.9l-5.7,4.2l0.7,0.9
					c-4.8,6.3-6.8,14.4-4.6,22.5c3.8,14,18.6,22.2,33.1,18.3c0.9-0.2,1.8-0.5,2.7-0.9l0.7,0.9l6.5-4.8l0,0
					C1908.7,1349.4,1912.9,1338.7,1910.1,1328.3z"/>
			</g>
			
				<ellipse transform="matrix(-0.9659 0.259 -0.259 -0.9659 4039.4443 2146.3013)" class="st3" cx="1878.3" cy="1339.3" rx="27.3" ry="26.2"/>
			<g>
				<path class="st16" d="M1887,1335.9c-1.2-4.5-6-7.2-10.8-5.9c-1.2,0.3-2.3,0.9-3.2,1.6l-1.9,1.4l0.2,0.3c-1.6,2-2.2,4.7-1.5,7.3
					c1.2,4.5,6,7.2,10.8,5.9c0.3-0.1,0.6-0.2,0.9-0.3l0.2,0.3l2.1-1.6l0,0C1886.5,1342.8,1887.9,1339.3,1887,1335.9z"/>
			</g>
			
				<ellipse transform="matrix(-0.9659 0.259 -0.259 -0.9659 4036.2227 2147.0659)" class="st25" cx="1876.6" cy="1339.5" rx="8.9" ry="8.5"/>
		</g>
		<g>
			<g>
				<path class="st16" d="M2104.6,1548.4c5.1-12.3-1.2-26.6-14-31.8c-3.3-1.3-6.7-2-10-2l-6.5-0.2l0,1c-7,1.9-13,6.8-15.9,13.9
					c-5.1,12.3,1.2,26.6,14,31.8c0.8,0.3,1.6,0.6,2.4,0.9l0,1l7.4,0.1v0C2091.7,1563.1,2100.8,1557.6,2104.6,1548.4z"/>
			</g>
			
				<ellipse transform="matrix(-0.9249 -0.3801 0.3801 -0.9249 3409.7271 3750.7061)" class="st3" cx="2075.2" cy="1538.7" rx="25.1" ry="24.1"/>
			<path class="st0" d="M2079,1541.3c1.5-2.4,0.5-6.8-3.3-8c-1.6-0.5-48.9-4.9-48.9-4.9l0.4,13.7l48,1.5
				C2075.2,1543.7,2077.5,1543.8,2079,1541.3z"/>
			<path class="st16" d="M2066.1,1548c5.5-13.4-1.3-28.9-15.2-34.6c-3.6-1.5-7.2-2.1-10.8-2.1l-7.1-0.2l0,1.1
				c-7.6,2.1-14.1,7.4-17.3,15.1c-5.5,13.4,1.3,28.9,15.2,34.6c0.9,0.4,1.8,0.7,2.6,0.9l0,1.1l8.1,0.1v0
				C2052.1,1564.1,2062,1558.1,2066.1,1548z"/>
			
				<ellipse transform="matrix(-0.9249 -0.3801 0.3801 -0.9249 3331.1694 3732.8491)" class="st3" cx="2034.2" cy="1537.5" rx="27.3" ry="26.2"/>
			<path class="st16" d="M2043.1,1540.1c1.8-4.4-0.4-9.4-4.9-11.2c-1.2-0.5-2.4-0.7-3.5-0.7l-2.3-0.1l0,0.4
				c-2.5,0.7-4.6,2.4-5.6,4.9c-1.8,4.4,0.4,9.4,4.9,11.2c0.3,0.1,0.6,0.2,0.9,0.3l0,0.4l2.6,0v0
				C2038.5,1545.3,2041.7,1543.3,2043.1,1540.1z"/>
			
				<ellipse transform="matrix(-0.9249 -0.3802 0.3802 -0.9249 3328.5935 3730.7087)" class="st25" cx="2032.7" cy="1536.7" rx="8.9" ry="8.5"/>
		</g>
	</g>
	<g>
		<g>
			<g>
				<path class="st9" d="M1222.4,1237.3c2.4-15.2,17.2-25.5,33-23.1c4,0.6,7.8,2.1,11,4.1l6.5,3.8l-0.6,1c5.8,6.1,8.8,14.5,7.4,23.2
					c-2.4,15.2-17.2,25.5-33,23.1c-1-0.2-2-0.4-2.9-0.6l-0.6,1l-7.4-4.4l0,0C1226.3,1259.5,1220.6,1248.6,1222.4,1237.3z"/>
			</g>
			
				<ellipse transform="matrix(0.9878 0.1555 -0.1555 0.9878 208.8866 -180.3141)" class="st13" cx="1257.3" cy="1245.3" rx="29" ry="27.9"/>
			<path class="st9" d="M1251.9,1245.7c-0.1-3.3,3.6-7,8.1-5.9c1.8,0.5,51.2,24.5,51.2,24.5l-8.6,13.3l-48.4-27.3
				C1254.2,1250.3,1251.9,1249,1251.9,1245.7z"/>
		</g>
		<path class="st23" d="M1282.3,1262.6c-0.7-0.1-16.2,7.4-24.2-3.6c-3.6-5-0.9-9.7,2.6-11.1c2.7-1,7.1,2.1,8.8,3.8
			C1272.4,1254.6,1282.3,1262.6,1282.3,1262.6z"/>
		<path class="st11" d="M1236.5,1561.2c-5.3-3.2-2.3-27.2-2.3-27.2s24.6-19.6,27.9-4.6s23.3,21.8,34.7,23.6c7.8,1.3,10.3,5.6,11,8.2
			H1236.5z"/>
		<path class="st10" d="M1264.4,1541.9c-8,2.6-23.4,10.4-33.1,6.7c-6.3-2.4-41.5-104.2-43.8-148.7c-0.1-2.2-0.4-4.9-0.9-8.2
			c-0.2-1.6-0.5-3.3-0.9-5.1c-3.3-18-10.4-46.6-17.4-75.4c-9.5-38.9-18.9-78.4-18.7-93.1c0.5-29,86.4-6.1,86.4-6.1
			s5.1,20.7,6.8,51.5c0.1,2.2,0.2,4.4,0.3,6.7c2.3,68.3,8.7,183.7,26.2,263.9C1269.9,1537.5,1267.7,1540.9,1264.4,1541.9z"/>
		<path class="st11" d="M1242.7,1263.5l-56.2,128.2c-0.2-1.6-0.5-3.3-0.9-5.1c-3.3-18-10.4-46.6-17.4-75.4l-10-100.1l77.7,0.9
			C1235.9,1212,1241.1,1232.7,1242.7,1263.5z"/>
		<path class="st23" d="M1195,1020.2c0,0,28.8,1,39.5,13.8c10.7,12.8,23.5,103.9,30.7,122.5c7.1,18.7,15.7,84.3,15.7,86.8l-11.6,2.3
			c0,0-32-67.7-34.8-82.6c-2.8-14.9-37.6-88.8-37.3-93.9C1197.4,1064,1195,1020.2,1195,1020.2z"/>
		<path class="st23" d="M1122.8,1054.5c1.2-9.5-8.5-16.7-17.2-12.6c-11,5.2-23.1,12.3-26.7,20.2c-7.2,15.3-22.9,81.9-21.7,106.7
			c0,0,13.4,3.6,22.9-0.5c9.5-4.1,41.7-105.9,41.7-105.9L1122.8,1054.5z"/>
		<path class="st11" d="M1160.1,1561.4c0,0-1.5-11.9-5-18.9c-3.5-7.1-26-2.6-26-2.6s-4.5,3.8-5.4,21.8L1160.1,1561.4z"/>
		<path class="st10" d="M1204.8,1218.2l-45.4,329c0,0-19.9,4.8-35.4,1c0,0-13.3-175-12.2-217.3c1.1-42.3,1.8-102,6.7-115.4
			C1126.2,1194.4,1204.8,1218.2,1204.8,1218.2z"/>
		<path class="st23" d="M1188.1,1005.1l0,4.3c0,0,1.2,13.3-15.3,15.3c-16.4,2-28.8-5.2-28.4-15.5c1.5-8,3.1-13.4,3.2-20
			c0-2.4-0.1-5-0.6-8l31.8-0.6l9.4,1.5L1188.1,1005.1z"/>
		<path class="st12" d="M1188.3,982v16.7c-12.2,4.4-36.8-3-38.8-12.8l29.4-5.4L1188.3,982z"/>
		<path class="st23" d="M1144.7,976c3.7,19.9,29.3,19.2,40.4,18c3.1-0.3,5.1-0.7,5.1-0.7c3.5-0.9,5.5-6.5,6.4-13.7
			c1.8-14.3-0.5-35.4-2.9-40.8c-3.6-8.1-10.5-16.9-36.3-10.5C1131.5,934.5,1139.9,950.6,1144.7,976z"/>
		<path class="st24" d="M1177.5,980.7c0,0,2.1,3.7,9.4,3c4.8-0.5,5.2-4.6,5.2-4.6S1185.2,977.6,1177.5,980.7z"/>
		<path class="st24" d="M1233,1089.8c18.4-1.5,27.2-10.3,27.2-10.3s-16.6-45.4-25.7-53.2c-9.1-7.8-46.3-14.6-46.3-14.6
			c-0.3-0.2-0.5-0.3-0.5-0.3l0,0c0,4.1-6.5,11.7-16.5,12.4c-11.9,0.8-26.7-7.8-26.7-14.6c0,0-28.3,2-43.4,10.2
			c-15.1,8.2-33.1,48.6-33.1,48.6s6.1,20,43.7,26.4l-2.7,133c69.4,23,133.4-0.7,133.4-0.7c1.5,0-8.2-76.2-8.7-95
			C1233.4,1119.4,1233.1,1105.5,1233,1089.8z"/>
		<path class="st11" d="M1200,938.1c4.5-4.6,3.3-12.3-2.4-15.4c-5.8-3.1-14.8-7.5-22.6-9.6c-11.4-3.1-22.8,0.4-27.2,2.8
			c0.1-0.7,0.4-1.7,1.1-2.7c0,0-2,1.4-2.3,3.4c-0.2,0.2-0.3,0.3-0.2,0.3c0,0-2.3-0.4-3.7,0.2c0,0,1-0.1,1.4,0.5
			c0,0.1,0.1,0.1,0.2,0.2c-17,8.2-22.6,28.3-13.1,41.2c5.9,8,16.5,24.3,16.5,24.3s-1.8-4.4-2.2-8.1c-0.1-1.1,0.2-2.2,0.6-3.1
			c0.8-2,0.8-4.2,0-6.2c-1.2-2.9-1.4-5.9,1-7.1c2.9-1.4,5.1,0.7,6.6,2.8c1.1,1.7,3.3,2.4,5.2,1.7c0.1,0,0.1,0,0.2-0.1
			c7.2-3,1.2-11.3,7.5-16.4c6.3-5.1,23-2.4,28.5-4.5C1196.6,941,1198.4,939.7,1200,938.1z"/>
		<g>
			<g>
				<path class="st9" d="M1260.6,1260c2.6-16.6,18.7-27.8,35.9-25.1c4.4,0.7,8.4,2.2,12,4.4l7.1,4.1l-0.7,1.1
					c6.3,6.6,9.5,15.8,8,25.3c-2.6,16.6-18.7,27.8-35.9,25.1c-1.1-0.2-2.1-0.4-3.2-0.7l-0.7,1.1l-8.1-4.7l0,0
					C1264.8,1284.3,1258.7,1272.4,1260.6,1260z"/>
			</g>
			
				<ellipse transform="matrix(0.9878 0.1555 -0.1555 0.9878 213.0446 -186.4458)" class="st13" cx="1298.5" cy="1268.8" rx="31.5" ry="30.3"/>
			<g>
				<path class="st9" d="M1288.2,1266c0.8-5.4,6.1-9,11.6-8.1c1.4,0.2,2.7,0.7,3.9,1.4l2.3,1.3l-0.2,0.4c2,2.1,3.1,5.1,2.6,8.2
					c-0.8,5.4-6.1,9-11.6,8.1c-0.3-0.1-0.7-0.1-1-0.2l-0.2,0.3l-2.6-1.5l0,0C1289.5,1273.9,1287.5,1270,1288.2,1266z"/>
			</g>
			
				<ellipse transform="matrix(0.9878 0.1555 -0.1555 0.9878 213.0995 -186.7697)" class="st13" cx="1300.5" cy="1268.8" rx="10.2" ry="9.9"/>
		</g>
		<path class="st23" d="M1057.2,1168.8c0,0,46.8,17.9,111.1,10v-13.3c0,0-69.3-13.8-82.9-25.9
			C1085.4,1139.6,1061,1149.8,1057.2,1168.8z"/>
		<g>
			<g>
				<g>
					<path class="st9" d="M1219.7,1147c-4-14.9-19.8-23.6-35.2-19.4c-4,1.1-7.5,2.9-10.5,5.2l-6.1,4.4l0.7,1
						c-5.1,6.7-7.2,15.4-4.9,23.9c4,14.9,19.8,23.6,35.2,19.4c1-0.3,1.9-0.6,2.8-0.9l0.7,0.9l6.9-5.1l0,0
						C1218.3,1169.5,1222.7,1158.1,1219.7,1147z"/>
				</g>
				
					<ellipse transform="matrix(-0.9659 0.259 -0.259 -0.9659 2631.6033 1970.6667)" class="st13" cx="1186" cy="1158.7" rx="29" ry="27.9"/>
				<path class="st9" d="M1191.4,1158.5c-0.3-3.3-4.3-6.6-8.7-5c-1.8,0.6-48.4,29.8-48.4,29.8l10,12.3l45.2-32.3
					C1189.5,1163.3,1191.7,1161.8,1191.4,1158.5z"/>
			</g>
			<path class="st23" d="M1181.2,1181.2c0.2-0.7,13.9-11.2,7.7-23.2c-2.8-5.5-8.3-5.2-11.1-2.7c-2.1,1.9-1.3,7.2-0.6,9.6
				C1178.6,1168.8,1181.2,1181.2,1181.2,1181.2z"/>
			<g>
				<g>
					<path class="st9" d="M1184.2,1173.7c-4.3-16.2-21.5-25.7-38.3-21.1c-4.3,1.2-8.2,3.1-11.5,5.7l-6.6,4.8l0.8,1
						c-5.5,7.2-7.8,16.7-5.3,26c4.3,16.2,21.5,25.7,38.3,21.1c1.1-0.3,2.1-0.6,3.1-1l0.8,1l7.5-5.6l0,0
						C1182.6,1198.2,1187.4,1185.8,1184.2,1173.7z"/>
				</g>
				
					<ellipse transform="matrix(-0.9659 0.259 -0.259 -0.9659 2562.9983 2035.1743)" class="st13" cx="1147.4" cy="1186.4" rx="31.5" ry="30.4"/>
				<g>
					<path class="st9" d="M1157.4,1182.5c-1.4-5.3-7-8.3-12.4-6.9c-1.4,0.4-2.7,1-3.7,1.8l-2.2,1.6l0.3,0.3
						c-1.8,2.4-2.5,5.4-1.7,8.4c1.4,5.3,7,8.3,12.4,6.9c0.3-0.1,0.7-0.2,1-0.3l0.3,0.3l2.4-1.8l0,0
						C1156.9,1190.5,1158.5,1186.5,1157.4,1182.5z"/>
				</g>
				
					<ellipse transform="matrix(-0.9659 0.259 -0.259 -0.9659 2559.259 2036.1028)" class="st13" cx="1145.5" cy="1186.7" rx="10.2" ry="9.9"/>
			</g>
		</g>
	</g>
	<g>
		<path class="st12" d="M1480.8,1036c0,0-34,2-37.7,16c-5.9,22.4-11.4,74.6-11.4,74.6l-34.3-42.6l-12.4,5.9c0,0,29.3,78.7,54,75
			C1463.7,1161.5,1480.8,1036,1480.8,1036z"/>
		<path class="st19" d="M1515.7,931c0,0,4.4-17.7,30.5-12.2c0,0-12.5-1.6-15.9,3.2c0,0,9.9-4.5,16.1-0.7c6.2,3.8,7.2,16.5,6.3,20.4
			c-0.9,3.9-7.8,15.4-12.3,15.4s-9.9-4-9.9-4L1515.7,931z"/>
		<path class="st19" d="M1468.9,949.3c0,0,33-39.6,50.5-14.3c0,0,13,5.4,17.7,27.6c4.8,22.6-10.2,39.8-18,35.6c-5-2.7-8.8,6-8.8,6
			L1468.9,949.3z"/>
		<path class="st23" d="M1479.2,1036.2c-0.1,0.1,12.1,6.4,21.3,3.9c8.7-2.4,19.7-5.3,19.5-5.3c-3.7-0.7-10.1-14.1-10-35.8l-1.7,0.3
			l-27.9,5.5c0,0,0.6,8.8,0.7,17.1C1481.2,1028.9,1480.8,1035.5,1479.2,1036.2z"/>
		<path class="st12" d="M1480.6,1004.9c0,0,0.6,8.8,0.7,17.1c15.6-0.4,23.9-14.7,27.3-22.6L1480.6,1004.9z"/>
		<path class="st19" d="M1511.4,996.3c0,0,8.2-12.9,10.2-24c1.4-7.9-2.6-37.2-32-32.9c0,0-8.5,0.8-16.6,6.3
			c-6.4,4.3-15.6,13.6-5.3,39.2l2.7,8.6L1511.4,996.3z"/>
		<path class="st23" d="M1475.4,1012.7c0,0,37,0.6,37-22.4s4.8-38.4-18.8-39.8c-23.6-1.4-28.2,7.4-30.1,15.1
			C1461.6,973.3,1465.7,1012,1475.4,1012.7z"/>
		<path class="st19" d="M1476.7,949.9c0,0,10.1,27,25.6,31c15.5,4,22.3-0.2,22.3-0.2s-11.9-9.5-14.4-26
			C1510.3,954.8,1484.4,937.1,1476.7,949.9z"/>
		<path class="st19" d="M1479.2,952.1c0,0-7.6,6-9.4,11.9s-2.7,17.9-6.2,17.5c0,0-7.6-18.4,0.9-28.7
			C1473.7,941.8,1479.2,952.1,1479.2,952.1z"/>
		<path class="st23" d="M1450.7,1202.1c18.8-60.1-1.8-73.1,0.2-103.2c2-30.1,25.2-62.4,25.2-62.4s28.2-2.9,43-1.8
			c13.2,0.9,35.7,41.8,30.1,79.6c-0.7,4.7-1.8,9.3-3.4,13.8c-6.9,19.1-10.5,26.9-10.3,34.2c0.2,9.1,6.4,17.4,19.4,46.4
			C1561.9,1224.7,1431.5,1263.4,1450.7,1202.1z"/>
		<path class="st23" d="M1499.3,1337.2c-5.2,29.6-9.1,51.8-9.1,51.8c9.8,40.2-4.9,91.6-17.1,124c-2.8,7.4-5.4,13.8-7.6,18.9
			c0,0,0,0,0,0c0,0,0,0,0,0c0,0,0,0.1-0.1,0.1l0,0c-0.1,0.1-0.1,0.3-0.2,0.4c0,0,0,0,0,0c-3.2,7.3-5.3,11.6-5.3,11.6l-17.9,0.8
			c0,0,1.4-7.7,2.9-20.7c0-0.1,0-0.1,0-0.1c0.5-4.2,1-8.9,1.5-14.1c2.7-29.5,4.6-73.9-1.7-118.6c-15.5-109.2,5-182.4,5-182.4
			l65.7,21.2l3.1,1C1512.6,1262.2,1505.1,1304.3,1499.3,1337.2z"/>
		<path class="st23" d="M1518.1,1034.1c0,0,31.6,3.2,35.3,11.4c11.9,26.3,23.8,114.8,27.2,122.6c3.3,7.8,13.5,50.5,22.2,71.5
			l-11.1,3.3c0,0-36.6-60.7-39.9-76.5c-3.3-15.8-21.6-80.1-21.6-80.1L1518.1,1034.1z"/>
		<path class="st24" d="M1543,1106.7l0.4,27.4c0,0-24.1-7-49.8-9.1c-6.3-0.5-12.6-0.7-18.8-0.5c-7.6,0.3-14.8,1.3-21.1,3.3
			c0,0-4.1-17.7-8.1-38.8c-0.1-0.8-0.3-1.5-0.3-2.3c-2.4-20,15.5-36.4,8-44.4c0,0,6.5-3.6,22.8-5.7c0,0-12.5,22-11.4,27.5
			c1.1,5.5,49.4,0.6,52.7-2.5c3.3-3,8.6-26.4,8.6-26.4s17.1,1.9,25.4,7.9c0,0-5.6,7.1-9.2,15.5c-1,2.5-1.9,5.1-2.4,7.7
			c-1.3,6.9-4.7,20.1,3.1,30.4L1543,1106.7z"/>
		<path class="st12" d="M1511.8,1266.2c-5.8,30.9-6.7,38.1-12.5,71c-36-62.9-30.7-79.4-30.7-79.4L1511.8,1266.2z"/>
		<path class="st23" d="M1625,1523.6c0,1.2-0.1,2.3-0.1,3.4c-0.5,10.5-1.4,17-1.4,17l-17.3-6c0,0-0.8-2.5-2.2-6.8
			c-0.6-1.7-1.3-3.8-2-6.1c0,0,0,0,0,0c-1.4-4.2-3.1-9.2-5.1-14.8c-11.7-33.7-31.7-87.6-43.4-100c-33.3-35.5-82.3-190.2-82.3-190.2
			l66.2-21.5c9.8,9.5,17.8,27.3,24.2,48.3c16.2,52.9,22.5,126,23.4,136.5v0c0.1,0.8,0.5,1.5,1,2.1c31,34.5,38.2,84.7,39.1,119.3
			C1625.3,1511.9,1625.2,1518.2,1625,1523.6z"/>
		<path class="st10" d="M1496.7,1271.8l-11.5-1.4c-5.6-1.8-11-3.1-16-3.9c-16.3-2.7-28.6-1.1-28.6-1.1c5-53.4,12.2-70.4,12.2-70.4
			l24,42L1496.7,1271.8z"/>
		<path class="st11" d="M1496.7,1271.8l-11.5-1.4c-5.6-1.8-11-3.1-16-3.9c-0.7-10.2,3.4-21.2,7.6-29.5L1496.7,1271.8z"/>
		<path class="st10" d="M1452.7,1194.8c0,0,15.9,12,32,10.9c16.1-1.1,63-11.8,63-11.8s8.7,12.6,14.8,37.7
			c6.3,25.9,6.3,45.1,6.3,45.1s-55.1-7.2-77.3,4.4L1452.7,1194.8z"/>
		<path class="st19" d="M1477.8,953.1c0,0,7.2,28.3,26.8,37.3c0,0-19.6-17.4-21.3-36C1481.7,935.7,1477.8,953.1,1477.8,953.1z"/>
		<g>
			<path class="st9" d="M1641.7,1246.6c-2.7-10.2-13.6-16.2-24.2-13.4c-2.7,0.7-5.2,2-7.2,3.6l-4.2,3l0.5,0.7
				c-3.5,4.6-4.9,10.6-3.4,16.4c2.7,10.2,13.6,16.2,24.2,13.4c0.7-0.2,1.3-0.4,1.9-0.6l0.5,0.6l4.7-3.5l0,0
				C1640.7,1262.1,1643.8,1254.3,1641.7,1246.6z"/>
		</g>
		
			<ellipse transform="matrix(-0.9659 0.259 -0.259 -0.9659 3506.7085 2047.3237)" class="st13" cx="1618.5" cy="1254.7" rx="19.9" ry="19.2"/>
		<path class="st9" d="M1622.2,1254.5c-0.2-2.3-3-4.5-6-3.4c-1.2,0.4-33.3,20.5-33.3,20.5l6.9,8.5l31.1-22.2
			C1620.9,1257.9,1622.4,1256.8,1622.2,1254.5z"/>
		<g>
			<path class="st9" d="M1361.6,1058.5c2.7-10.2,13.6-16.2,24.2-13.4c2.7,0.7,5.2,2,7.2,3.6l4.2,3l-0.5,0.7
				c3.5,4.6,4.9,10.6,3.4,16.4c-2.7,10.2-13.6,16.2-24.2,13.4c-0.7-0.2-1.3-0.4-1.9-0.6l-0.5,0.6l-4.7-3.5l0,0
				C1362.6,1074,1359.6,1066.1,1361.6,1058.5z"/>
		</g>
		
			<ellipse transform="matrix(0.9659 0.259 -0.259 0.9659 323.5237 -322.3123)" class="st13" cx="1384.8" cy="1066.5" rx="19.9" ry="19.2"/>
		<path class="st9" d="M1381.1,1066.4c0.2-2.3,3-4.5,6-3.4c1.2,0.4,33.3,20.5,33.3,20.5l-6.9,8.5l-31.1-22.2
			C1382.4,1069.7,1380.9,1068.7,1381.1,1066.4z"/>
		<path class="st12" d="M1385.1,1090.2c0,0-11.4-14.2-3.2-21.5c8.2-7.3,18.9-5.2,19.2-0.9s-3.7,16.5-3.7,16.5L1385.1,1090.2z"/>
		<path class="st23" d="M1602,1237.7c0,0,3.4,7.9,6.9,10.2c3.5,2.2,8.5,7.6,7.6,11.8c-0.9,4.3-1.8,10.9-6.3,10.9
			s-14.8-19.6-16.1-23.3s-2.4-4.4-2.4-4.4L1602,1237.7z"/>
		<g>
			<path class="st9" d="M1617.2,1265c-3-11.1-14.8-17.6-26.4-14.5c-3,0.8-5.6,2.1-7.9,3.9l-4.6,3.3l0.6,0.7
				c-3.8,5-5.4,11.5-3.7,17.9c3,11.1,14.8,17.6,26.4,14.5c0.7-0.2,1.4-0.4,2.1-0.7l0.5,0.7l5.2-3.8l0,0
				C1616.1,1281.9,1619.5,1273.3,1617.2,1265z"/>
		</g>
		
			<ellipse transform="matrix(-0.9659 0.259 -0.259 -0.9659 3459.5122 2091.7134)" class="st13" cx="1592" cy="1273.8" rx="21.7" ry="20.9"/>
		<g>
			<path class="st9" d="M1598.8,1271.1c-1-3.6-4.8-5.7-8.6-4.7c-1,0.3-1.8,0.7-2.6,1.3l-1.5,1.1l0.2,0.2c-1.2,1.6-1.7,3.7-1.2,5.8
				c1,3.6,4.8,5.7,8.6,4.7c0.2-0.1,0.5-0.1,0.7-0.2l0.2,0.2l1.7-1.2l0,0C1598.5,1276.5,1599.6,1273.8,1598.8,1271.1z"/>
		</g>
		
			<ellipse transform="matrix(-0.9659 0.2591 -0.2591 -0.9659 3456.9653 2092.29)" class="st13" cx="1590.6" cy="1273.9" rx="7" ry="6.8"/>
		<g>
			<path class="st9" d="M1386.1,1076.8c3-11.1,14.8-17.6,26.4-14.5c3,0.8,5.6,2.1,7.9,3.9l4.6,3.3l-0.6,0.7c3.8,5,5.4,11.5,3.7,17.9
				c-3,11.1-14.8,17.6-26.4,14.5c-0.7-0.2-1.4-0.4-2.1-0.7l-0.5,0.7l-5.2-3.8l0,0C1387.2,1093.7,1383.9,1085.2,1386.1,1076.8z"/>
		</g>
		
			<ellipse transform="matrix(0.9659 0.259 -0.259 0.9659 329.3889 -328.5446)" class="st13" cx="1411.4" cy="1085.6" rx="21.7" ry="20.9"/>
		<g>
			<g>
				<path class="st9" d="M1404.5,1082.9c1-3.6,4.8-5.7,8.6-4.7c1,0.3,1.8,0.7,2.6,1.3l1.5,1.1l-0.2,0.2c1.2,1.6,1.7,3.7,1.2,5.8
					c-1,3.6-4.8,5.7-8.6,4.7c-0.2-0.1-0.5-0.1-0.7-0.2l-0.2,0.2l-1.7-1.2l0,0C1404.8,1088.4,1403.8,1085.6,1404.5,1082.9z"/>
			</g>
			
				<ellipse transform="matrix(0.9659 0.259 -0.259 0.9659 329.4796 -328.8882)" class="st13" cx="1412.7" cy="1085.8" rx="7" ry="6.8"/>
		</g>
		<path class="st11" d="M1451.2,1199.1c0,0,14.4,10.5,29.7,11s68.9-12.7,68.9-12.7l-2.2-4.2c0,0-58.8,15.7-72.5,11.1
			s-22.1-10.2-22.1-10.2L1451.2,1199.1z"/>
		<path class="st23" d="M1464.1,1561.4c-6.5,0.1-21.8-1.7-28,0l-24.6,0c-5.7-3.5-8.1-7.6,7.2-9.5c22-2.7,26-24.8,26.4-27.5
			c0-0.1,0-0.1,0-0.1c0-0.1,0-0.2,0-0.2l20.6,7.9c0,0,0,0,0,0c0,0,0,0,0,0c0,0,0,0.1-0.1,0.1l0,0c0,0.1-0.1,0.3-0.2,0.4c0,0,0,0,0,0
			c-0.7,1.9-2.4,7.4-0.1,13.9C1467.2,1552.2,1470.6,1561.3,1464.1,1561.4z"/>
		<path class="st23" d="M1625.7,1561.4c-6.5,0.1-21.8-1.7-28,0l-24.6,0c-5.7-3.5-7.9-6.8,7.1-9.5c22.2-3.9,24.7-14.1,23.7-20.7
			c-0.5-3.3-1.8-5.8-2-6.1c0,0,0,0,0,0l23.1-1.4c0,0-0.1,1.3-0.1,3.4c-0.1,4.8,0,13.9,2,19.5
			C1628.8,1552.2,1632.2,1561.3,1625.7,1561.4z"/>
		<path class="st10" d="M1465.3,1532.7c-0.7,1.9-2.4,7.4-0.1,13.9c1.9,5.6,5.4,14.8-1.1,14.8s-21.8-1.7-28,0l-24.6,0
			c-5.7-3.5-8.1-7.6,7.2-9.5c22-2.7,26-24.8,26.4-27.5c0-0.1,0-0.1,0-0.1c0.5-4.2,1-8.9,1.5-14.1c0,0,10.2,7.5,26.7,3v0
			c-2.8,7.4-5.4,13.8-7.6,18.9c0,0,0,0,0,0c0,0,0,0,0,0c0,0,0,0.1-0.1,0.1l0,0C1465.5,1532.3,1465.4,1532.5,1465.3,1532.7
			C1465.3,1532.6,1465.3,1532.6,1465.3,1532.7z"/>
		<path class="st10" d="M1625.7,1561.4c-6.5,0.1-21.8-1.7-28,0l-24.6,0c-5.7-3.5-7.9-6.8,7.1-9.5c22.2-3.9,24.7-14.1,23.7-20.7
			c-0.6-1.7-1.3-3.8-2-6.1c0,0,0,0,0,0c-1.4-4.2-3.1-9.2-5.1-14.8c6.3,0.1,17.9-0.6,28.3-5.3c0.2,6.9,0.1,13.2-0.1,18.7
			c0,1.2-0.1,2.3-0.1,3.4c-0.1,4.8,0,13.9,2,19.5C1628.8,1552.2,1632.2,1561.3,1625.7,1561.4z"/>
		<path class="st24" d="M1471,999.2c0,0,1,2.1,1.4,3.2c0.4,1.1,6.6,1.1,8.5-0.1c1.6-1,3.6-3.7,3.5-3.6
			C1484.4,998.7,1473.7,998.5,1471,999.2z"/>
	</g>
	<g>
		<path class="st13" d="M729.9,1335c-5.6,6.1-14,12.4-0.6,26.3c17.1,17.9,43.6,94.9,43.6,94.9c-0.9,2.9,0,7-2.1,8.2
			c-3.4,1.9-12-4-12-4s-78.6-81.5-85-99.8c-4.7-13.5,19.4-79,33.8-113.4c5.1-12.2,9-20.4,10-21c0.1-0.1,0.3-0.2,0.4-0.3
			c8.5-5.4,16.4-4.7,23.6-0.6c1.5,0.9,3,1.9,4.4,3.1c17.6,14.3,28.9,48.1,27.7,55.2c-0.8,4.9-9.4,15.3-18.8,25.5
			c-2,2.1-3.9,4.2-5.9,6.3C740.4,1324.5,732.3,1332.4,729.9,1335z"/>
		<path class="st6" d="M754.9,1309.2c-2,2.1-3.9,4.2-5.9,6.3l-41.4-68.1c5.1-12.2,9-20.4,10-21c0.1-0.1,0.3-0.2,0.4-0.3l23.6-0.6
			l4.3-0.1l0.2,3.2L754.9,1309.2z"/>
		<path class="st23" d="M731.4,1072.2c0,0,8.8,21.5,6.5,34.3c-2.3,12.8-32.6,76.7-43.7,87.6s-84.4-35.6-84.4-35.6l7.2-6.9
			c0,0,58,14.8,61.1,10.1C681.2,1157.2,696,1066.2,731.4,1072.2z"/>
		<path class="st13" d="M729.7,1241c0,0,15,75.2,53,128.1c36.7,51.1,55.8,129.5,55.8,129.5s2.4,1.9,7.2-0.1c4.8-2,8,0.4,9-1.9
			c0,0-6.9-123.7-26-150.8c-10.8-15.3-16.5-71.5-16.1-86.8c0.4-15.3-6.3-34-6.3-34L729.7,1241z"/>
		<g>
			<path class="st11" d="M854.3,1518.8l-8.9,0.1c-3-0.4-5.2-1.3-8.2-1.7c-4.6-0.6-6.8,1.3-7.2,1.8c-0.1,0.1-0.1,0.1-0.1,0.1
				l-37.7,0.3c-1-1.3-0.1-4.5,0.8-6.8c0.6-1.6,1.9-2.8,3.5-3.3c4-1.2,11.9-2.3,19-8.9c4-3.7,19.5-13.6,19.5-13.6l0.1,0
				c0.3,0,2,0.5,9.1,6.4c3.7,3.1,9.9-4.4,9.9-4.4s1.2,1,2.1,2.8c0.7,1.4,1.2,3.4,0.9,5.8c-0.5,3.4,1.3,9.7,2.8,14
				c0.9,2.6,1.7,4.4,1.7,4.4S861.9,1517.8,854.3,1518.8z"/>
			<path class="st11" d="M856.2,1491.5c-2.1,1.5-6.6,4.5-9.5,4.9c-4,0.6-11.6-9.6-11.6-9.6l0.1,0c0.3,0,2,0.5,9.1,6.4
				c3.7,3.1,9.9-4.4,9.9-4.4S855.3,1489.7,856.2,1491.5z"/>
			<path class="st11" d="M854.3,1518.8l-8.9,0.1c-3-0.4-5.2-1.3-8.2-1.7c-4.6-0.6-6.8,1.3-7.2,1.8c-0.1,0.1-0.1,0.1-0.1,0.1
				l-37.7,0.3c-1-1.3-0.1-4.5,0.8-6.8c1.1-1,1.5,4.4,2.1,5.3c0.6,0.9,30.8,0.1,32.5-1.2c1.7-1.3,6.9-3.5,14.2-1.8
				c6.3,1.5,15.6-2.5,17.9-3.5c0.9,2.6,1.7,4.4,1.7,4.4S861.9,1517.8,854.3,1518.8z"/>
		</g>
		<path class="st17" d="M808.5,1177.7c0-42.2-7.7-103-18.2-107.7c-9-4-28.5-9.6-48.7-9.3c-15.9,0.2-49.8,7.7-53.2,34
			c-2.2,16.6-3.1,30.3-3.1,30.3s3.6,10.6,13.7,13.5c1.3,4.7,1.8,9.4,3.3,13.3c16.7,44,8.5,88,8.5,88c15.4,12.8,91.8,5.3,99.5,0.3
			C822.9,1231.8,808.5,1219.9,808.5,1177.7z"/>
		<g>
			<path class="st11" d="M790.2,1466.8l-6.4,6.2c-2.5,1.7-4.6,2.6-7.1,4.5c-3.7,2.8-4,5.6-4,6.2c0,0.1,0,0.1,0,0.1l-27,26.3
				c-1.6-0.3-3.2-3.2-4.1-5.5c-0.7-1.5-0.6-3.3,0.3-4.8c2.1-3.6,7-9.8,7.6-19.6c0.4-5.5,4.7-23.3,4.7-23.3l0-0.1
				c0.2-0.2,1.8-1,11-1.6c4.8-0.3,4.1-10,4.1-10s1.5-0.1,3.4,0.6c1.5,0.5,3.2,1.6,4.6,3.6c2,2.8,7.7,6.1,11.7,8.1
				c2.4,1.2,4.2,2,4.2,2S795,1460.8,790.2,1466.8z"/>
			<path class="st11" d="M772.7,1445.8c-0.5,2.5-1.6,7.8-3.5,10.1c-2.5,3.2-15,1-15,1l0-0.1c0.2-0.2,1.8-1,11-1.6
				c4.8-0.3,4.1-10,4.1-10S770.8,1445.1,772.7,1445.8z"/>
			<path class="st11" d="M790.2,1466.8l-6.4,6.2c-2.5,1.7-4.6,2.6-7.1,4.5c-3.7,2.8-4,5.6-4,6.2c0,0.1,0,0.1,0,0.1l-27,26.3
				c-1.6-0.3-3.2-3.2-4.1-5.5c0.1-1.5,4.1,2.1,5.2,2.3c1.1,0.2,22.3-21.2,22.6-23.3s2.6-7.3,9-11.2c5.6-3.3,9.6-12.6,10.5-15
				c2.4,1.2,4.2,2,4.2,2S795,1460.8,790.2,1466.8z"/>
		</g>
		<path class="st23" d="M768.4,1075.6c0,0,23.3-0.3,34.3,6.6c11.1,6.8,59.2,58.6,65.3,72.9c6.1,14.3-49.8,55.1-49.8,55.1l-7.9-12.5
			c0,0,24.9-34.9,21.7-39.5C828.9,1153.5,749.7,1106.3,768.4,1075.6z"/>
		<path class="st23" d="M813.3,1195.7l9.3,7.2c0,0-8.2,17.6-12.6,19.3l-0.5,0.1c-4.8,1-16.7-6.8-18.7-14.9c-0.2-0.8-0.1-1.6,0.1-2.3
			c1.8-4.9,13-7.6,18.8-8.7C811.8,1195.9,813.3,1195.7,813.3,1195.7z"/>
		<path class="st23" d="M623.5,1153.3l-4.6,10.8c0,0-19.1-3.6-21.8-7.5l-0.2-0.4c-2.1-4.4,2.5-17.9,9.8-21.8
			c0.8-0.4,1.5-0.5,2.3-0.5c5.2,0.6,10.6,10.7,13.1,16.1C623,1151.9,623.5,1153.3,623.5,1153.3z"/>
		<path class="st17" d="M759.6,1061.8c0,0,21.6,1,37.1,10.6c7.1,4.4,34.5,30.4,34.5,30.4s-3,27.1-35.7,34.5
			c-33.2,7.5-38.6-48-38.6-48L759.6,1061.8z"/>
		<path class="st23" d="M753.6,1062.2c1,1.5,1.1,3.5,0.1,5.1c-2.9,4.6-11,12.5-32.1,11.1c-7.2-0.5-8.9-6-4.3-11.6
			c1.1-1.4,0.7-9.3,0.6-12.4c-0.4-7.3-0.1-11.4-0.1-11.4l15-10.2l14.2-9.8C744.6,1045.8,750.7,1057.8,753.6,1062.2z"/>
		<path class="st7" d="M746.4,1034.4c0,0-10.4,16.4-28.5,19.9c-0.4-7.3-0.1-11.4-0.1-11.4l15-10.2L746.4,1034.4z"/>
		<path class="st23" d="M711.3,1042c0,0,34.8,8.1,39.5-13.3c4.7-21.4,12.4-34.8-9.6-40.8c-22-6.1-28.2,1.2-31.5,7.9
			C706.4,1002.6,702.4,1039.4,711.3,1042z"/>
		<path class="st19" d="M766.4,986.9c0.3-0.3,1.1-0.6,2.7-0.6c0,0-1.3-0.9-3-1.1c-0.2-2.3-1.1-6.4-5-7.7c0,0,2,1.3,2.1,3.7
			c-4.2-5-13.7-9-40.8-8.7c-35.7,0.4-25.5,24-21.1,27c4.4,3,16.5-3.7,25-2.4c8.5,1.2,9.3,13.7,12.1,15.6s1.9-1.2,5.9-2.7
			c4.1-1.5,4,5,2.6,9.2c-1.4,4.2,3.6,10.1,3.6,10.1s0,0,5.9-5.5c5.9-5.5,12.7-30.1,10.5-35.6C766.8,987.9,766.6,987.4,766.4,986.9z"
			/>
		<path class="st24" d="M708.3,1028.5c0,0,0.9,3.2,4.5,3.6c3.5,0.4,5.8-2.1,5.8-2.1S712.8,1027.3,708.3,1028.5z"/>
	</g>
	<path class="st20" d="M3117,1565.1v1.3c0,1.9-1.5,3.4-3.4,3.4H145.6c-1.9,0-3.4-1.5-3.4-3.4v-1.3c0-1.9,1.5-3.4,3.4-3.4h2967.9
		C3115.5,1561.7,3117,1563.2,3117,1565.1z"/>
	<g>
		<g>
			<path class="st2" d="M2277.5,1199.2v217.6h-2.1v-217.5c0.3,0,0.7,0,1,0C2276.7,1199.2,2277.1,1199.2,2277.5,1199.2z"/>
		</g>
		<g>
			<path class="st18" d="M2446.8,1309.8c-8.9-21.6-21.6-41-37.8-57.6c-16.2-16.6-35.1-29.7-56.1-38.9c-21.8-9.5-44.9-14.2-68.7-14.2
				c-2.2,0-4.4,0-6.6,0.1c-0.4,0-0.7,0-1,0c-0.4,0-0.7,0-1,0c-20.8,1-40.9,5.7-60,14c-21,9.1-39.9,22.2-56.1,38.9
				c-16.2,16.6-28.9,36-37.8,57.6c-9.2,22.4-13.9,46.1-13.9,70.6c0,24.5,4.7,48.2,13.9,70.6c8.9,21.6,21.6,41,37.8,57.6
				s35.1,29.7,56.1,38.9c21.8,9.5,44.9,14.3,68.7,14.3c23.8,0,47-4.8,68.7-14.3c21-9.1,39.9-22.2,56.1-38.9
				c16.2-16.6,29-36,37.8-57.6c9.2-22.4,13.9-46.1,13.9-70.6C2460.7,1355.9,2456,1332.1,2446.8,1309.8z M2402.5,1501.9
				c-31.6,32.5-73.7,50.3-118.4,50.3s-86.8-17.9-118.4-50.3c-31.6-32.5-49-75.6-49-121.5s17.4-89.1,49-121.5
				c29.6-30.4,68.2-48,109.6-50.1c0.4,0,0.7,0,1-0.1c0.4,0,0.7,0,1,0c2.2-0.1,4.4-0.1,6.6-0.1c44.7,0,86.8,17.9,118.4,50.3
				c31.6,32.5,49,75.6,49,121.5S2434.1,1469.4,2402.5,1501.9z"/>
		</g>
		<g>
			<path class="st6" d="M2221.2,1527.7c-0.3,14.4-0.6,24.1-0.6,24.1c-0.4,5.6-5.1,9.8-10.5,9.4l-36.6-2.6c-5.4-0.4-9.5-5.2-9.2-10.8
				c0,0,1-9.7,2.4-24.1c0.3-2.7,0.5-5.6,0.8-8.5c3.1-32,7.5-78.6,9-99.4c1.4-20.4,3.2-68.2,4.3-97.6c0.1-3,0.2-5.7,0.3-8.3
				c0.3-10,0.5-16.4,0.5-16.4c0.4-5.6,5.1-9.8,10.5-9.4l36.6,2.6c5.4,0.4,9.5,5.2,9.2,10.8c0,0-0.8,6.3-1.9,16.1
				c-0.3,2.6-0.6,5.5-0.9,8.5c-3.4,29.3-8.8,76.6-10.1,97.1c-1.4,20.7-2.8,67.6-3.6,99.7C2221.3,1522.1,2221.3,1525,2221.2,1527.7z"
				/>
			<path class="st13" d="M2205.2,1526.6c-0.3,14.4-0.6,24.1-0.6,24.1c-0.4,5.6-5.1,9.8-10.5,9.4l-20.6-1.5
				c-5.4-0.4-9.5-5.2-9.2-10.8c0,0,1-9.7,2.4-24.1c0.3-2.7,0.5-5.6,0.8-8.5c3.1-32,7.5-78.6,9-99.4c1.4-20.4,3.2-68.2,4.3-97.6
				c0.1-3,0.2-5.7,0.3-8.3c0.3-10,0.5-16.4,0.5-16.4c0.4-5.6,5.1-9.8,10.5-9.4l20.6,1.5c5.4,0.4,9.5,5.2,9.2,10.8
				c0,0-0.8,6.3-1.9,16.1c-0.3,2.6-0.6,5.5-0.9,8.5c-3.4,29.3-8.8,76.6-10.1,97.1c-1.4,20.7-2.8,67.6-3.6,99.7
				C2205.3,1520.9,2205.3,1523.8,2205.2,1526.6z"/>
			<path class="st14" d="M2236.1,1313.6c-0.3,2.6-0.6,5.5-0.9,8.5l-53.5-3.9c-0.3,0-0.5,0-0.7-0.1c0.1-3,0.2-5.7,0.3-8.3
				c0.3-0.1,0.7-0.1,1-0.1L2236.1,1313.6z"/>
			<path class="st14" d="M2166.7,1523.7c0.2,0.1,0.3,0.1,0.5,0.1l54,3.9c0.1-2.7,0.1-5.7,0.2-8.8l-53.5-3.9c-0.1,0-0.2,0-0.3,0.1
				L2166.7,1523.7z"/>
		</g>
		<g>
			<path class="st27" d="M2264.9,1317.6c0-1.4,0-117.4,0-117.4V1317.6z"/>
			<path class="st2" d="M2264.9,1318.6c-0.6,0-1-0.5-1-1.1v-117.4c0-0.6,0.5-1.1,1-1.1c0.6,0,1,0.5,1,1.1v117.4
				C2266,1318.2,2265.5,1318.6,2264.9,1318.6z"/>
		</g>
		<path class="st13" d="M2264.4,1338.4L2264.4,1338.4c-2.2,0-4-1.8-4-4v-14.4c0-2.2,1.8-4,4-4l0,0c2.2,0,4,1.8,4,4v14.4
			C2268.5,1336.6,2266.7,1338.4,2264.4,1338.4z"/>
		<path class="st13" d="M2276.4,1432.9L2276.4,1432.9c-2.2,0-4-1.8-4-4v-14.4c0-2.2,1.8-4,4-4l0,0c2.2,0,4,1.8,4,4v14.4
			C2280.5,1431.1,2278.6,1432.9,2276.4,1432.9z"/>
	</g>
	<g>
		<g>
			<path class="st3" d="M186.6,1061.3c0.9-3.2,1.8-6.4,2.7-9.5c1.3-4.4,2.7-8.7,4.1-13.1c4.6,0.2,9.4,1,13.5,2.7
				C207,1041.3,194.4,1052.1,186.6,1061.3z"/>
			<path class="st3" d="M304.6,1110.2c-9.4,21.5-24.2,24.1-29.5,21.6c-5.3-2.4-33.3-25.6-35.5-21.3c-2.2,4.3,12.1,25.5,25.4,30.7
				c0,0-35.1,19.6-49.3,5.7c-14.2-13.9-11.3-27.3-20.3-35.7c-8.9-8.4-18-11.5-15.3-5.1c2.7,6.4,20.3,17.7,22.7,30.4
				c2.4,12.8,5.4,21.8-11.3,13.2c-6.1-3.1-13.2-8.1-19.5-13.9c1.3-10.7,2.9-21.3,4.8-32c1-5.4,2.1-10.8,3.2-16.2
				c0.4-1.8,0.8-3.7,1.2-5.6c0.6-2.9,1.3-5.7,2-8.6c8.1-1.8,30.3-32.4,30.3-32.4s40.2,9.4,50.7,19.7c0,0-42.5,16-36,20
				c6.5,4,51.5-10.6,51.5-10.6S314,1088.7,304.6,1110.2z"/>
			<g>
				<path class="st3" d="M286.5,1104.8c-55.5-16.8-87.7-19.4-106.4-16.9c0.4-1.8,0.8-3.7,1.2-5.6
					C221.5,1080.3,284.3,1103.9,286.5,1104.8z"/>
			</g>
		</g>
		<g>
			<path class="st3" d="M465.7,982.1c-13.9,33.9-36.9,38.6-45.3,34.9c-8.4-3.6-53-38.7-56.3-32s19.9,39.4,41,47.1
				c0,0-54.1,31.9-76.9,10.7c-22.8-21.2-18.7-42.2-33.1-55c-14.3-12.8-28.6-17.2-24.1-7.3c4.5,9.9,32.3,26.9,36.6,46.7
				c4.3,19.9,9.3,33.9-17.1,21.1c-26.4-12.8-65.1-47.1-59.9-70.9c0.2-1,0.5-2,0.7-3l0,0c4.6-20.8,4.6-20.8,4.6-20.8
				s-0.8-1.8-1.8-4.8c0,0,0,0,0,0c8.4-14.2,17.6-28.1,27.9-41.8c0.6-0.8,1.1-1.5,1.7-2.3c7.8-10.3,16.1-20.4,25-30.3
				c7.4,0.1,15.1,1.1,21.8,3.7c0,0-47.4,42.6-39,50.9c8.5,8.3,49.4-51.2,49.4-51.2s63.3,13.2,80,28.8c0,0-65.9,26.6-55.6,32.6
				c10.3,6,80.1-18.5,80.1-18.5S479.7,948.2,465.7,982.1z"/>
			<g>
				<path class="st3" d="M437.2,974.3c-176-48.5-202-11.1-205.9,0.3l0,0c-0.6,1.8-0.7,3-0.7,3c-2.9-0.4-8,1-13.7,3.2
					c2.4-5,5-10,7.6-14.9c7.6-6.9,11.3-12.1,11.3-12.1C283.2,920.6,431.9,972.4,437.2,974.3z"/>
			</g>
		</g>
	</g>
	<g>
		<path class="st22" d="M2995.2,1494.9l0.2,54.7c0,6.5-5.3,11.8-11.8,11.8l-22.4,0.1c-6.9,0-12.5-5.6-12.5-12.4l-0.2-54.1
			c0-9.2,5.5-17.2,13.5-20.7c1-0.5,1.7-1.5,1.5-2.7c0-0.3-0.1-0.7-0.1-1l0-2.9l16.7,0l0,2.9c0,0.4,0,0.8-0.1,1.1
			c-0.2,1,0.4,2,1.3,2.4C2989.4,1477.6,2995.1,1485.6,2995.2,1494.9z"/>
		<path class="st9" d="M2995.2,1494.9l0.2,54.7c0,6.5-5.3,11.8-11.8,11.8l-14.1,0c-6.9,0-12.5-5.6-12.5-12.4l-0.2-54.1
			c0-9.2,5.5-17.2,13.5-20.7c0.4-0.2,0.7-0.4,1-0.7c0.4-0.5,0.7-1.2,0.6-1.9c0-0.3-0.1-0.7-0.1-1l0-2.9l8.3,0l0,2.9
			c0,0.4,0,0.8-0.1,1.1c-0.2,1,0.4,2,1.3,2.4C2989.4,1477.6,2995.1,1485.6,2995.2,1494.9z"/>
		<path class="st13" d="M2985.9,1494.9l0.2,54.7c0,6.5-5.3,11.8-11.8,11.8l-4.9,0c-6.9,0-12.5-5.6-12.5-12.4l-0.2-54.1
			c0-9.2,5.5-17.2,13.5-20.7c0.4-0.2,0.7-0.4,1-0.7c0.2,0.3,0.5,0.5,0.8,0.6C2980.2,1477.6,2985.9,1485.6,2985.9,1494.9z"/>
		
			<rect x="2948.5" y="1499.7" transform="matrix(1 -2.949531e-003 2.949531e-003 1 -4.4578 8.7722)" class="st14" width="46.7" height="32.1"/>
		
			<rect x="2962.5" y="1463.1" transform="matrix(1 -4.952521e-003 4.952521e-003 1 -7.2207 14.7355)" class="st19" width="18.5" height="4.4"/>
	</g>
	<g>
		<path class="st29" d="M2439.7,1045.5c0.4-6.7-0.6-13-0.6-13c-5.1,12.9-12,19.4-17,22.6c-1.6,0.4-2.9,0.6-3.6,0.4
			c-2.7-0.7-5.3-1.5-7.8-2.6c7.3-5.6,14.4-14.6,14.8-15.1c-6.6,6.1-14.6,10.2-20.1,12.6c-13.6-7.4-22.9-19.5-28-27.4
			c34.9-11,45.2-32.9,45.2-32.9c-31,24.8-44.7,26-49.5,25.1c-0.1-0.1-0.1-0.2-0.1-0.2c46.6-12.4,59.6-66.9,75.3-86
			c15.7-19.1,34.8-4.5,34.8-4.5S2481.3,992.1,2439.7,1045.5z"/>
		<path class="st12" d="M2521,1029.5c0,0,30.5,16.2,28,30.7c-4,23.1-21,73.6-21,73.6l49.6-24.7l8.9,10.7c0,0-60.2,60.1-81.4,46.3
			C2483.8,1152.3,2521,1029.5,2521,1029.5z"/>
		<path class="st15" d="M2586.3,1119.8c0,0,16.5-8.2,12-18.5c-4.5-10.2-15.2-12.8-17.3-9c-2.1,3.8-3.6,16.7-3.6,16.7L2586.3,1119.8z
			"/>
		<path class="st29" d="M2528.5,941.1c0,0-33.4-40.2-51.1-14.5c0,0-13.2,5.5-18,28c-4.9,22.9,10.4,40.4,18.3,36.1
			c5.1-2.8,8.9,6.1,8.9,6.1L2528.5,941.1z"/>
		<path class="st23" d="M2518,1029.2c0.1,0.1-12.3,6.5-21.6,4c-8.8-2.4-19.9-5.3-19.8-5.4c3.7-0.7,10.2-14.3,10.1-36.3l1.7,0.3
			l28.3,5.6c0,0-0.6,8.9-0.7,17.3C2515.9,1021.8,2516.3,1028.5,2518,1029.2z"/>
		<path class="st12" d="M2516.6,997.5c0,0-0.6,8.9-0.7,17.3c-15.8-0.4-24.2-14.9-27.6-22.9L2516.6,997.5z"/>
		<path class="st29" d="M2485.4,988.8c0,0-8.3-13.1-10.3-24.3c-1.4-8,2.7-37.7,32.5-33.4c0,0,8.7,0.9,16.8,6.3
			c6.5,4.4,15.8,13.8,5.4,39.7l-2.7,8.7L2485.4,988.8z"/>
		<path class="st23" d="M2521.9,1005.4c0,0-37.5,0.6-37.5-22.7c0-23.3-4.9-39,19-40.3c23.9-1.4,28.6,7.5,30.5,15.3
			C2535.8,965.5,2531.6,1004.7,2521.9,1005.4z"/>
		<path class="st29" d="M2520.5,941.8c0,0-10.3,27.4-26,31.4c-15.7,4-22.6-0.2-22.6-0.2s12.1-9.6,14.6-26.3
			C2486.5,946.7,2512.8,928.8,2520.5,941.8z"/>
		<path class="st29" d="M2518,944c0,0,7.7,6.1,9.5,12.1c1.9,5.9,2.7,18.2,6.3,17.8c0,0,7.7-18.6-1-29.1
			C2523.6,933.5,2518,944,2518,944z"/>
		<path class="st23" d="M2441.5,1204c13.1-29.5,19.4-37.8,19.6-47c0.1-2.5-0.1-6.3-0.7-11c-0.7-5.8-1.9-13-4-20.8c0,0,0,0,0,0
			c0-0.1,0-0.1-0.1-0.2c-0.2-0.7-0.5-2.2-1-4.3c-3.6-17.8-13.1-79.8,21.2-92.8c0.3,0,0.7-0.1,1-0.1c15-1,43.6,1.9,43.6,1.9
			s5.3,7.3,11.1,18.3c6.4,12.2,13.5,28.9,14.5,44.9c1.1,16.4-4.5,27.8-6.9,44.3c-2.1,14.2-1.8,32.1,7,60.3
			C2566.3,1259.5,2434.2,1220.3,2441.5,1204z"/>
		<path class="st29" d="M2519.4,944.9c0,0-7.3,28.7-27.2,37.8c0,0,19.9-17.6,21.5-36.5C2515.4,927.3,2519.4,944.9,2519.4,944.9z"/>
		<path class="st12" d="M2539.9,1137c0,0-49.9,14.3-79.5,8.9c-0.7-5.8-1.9-13-4-20.8c0,0,0,0,0,0c0-0.1,0-0.1-0.1-0.2
			c-0.2-0.7-0.5-2.2-1-4.3c9.4-5.5,20.6-9.5,20.6-9.5L2539.9,1137z"/>
		<path class="st3" d="M2546.4,1104.4c-1.2,10.8-4.8,20.3-6.6,32.6c-34.3,4.5-71.7-7.6-83.5-11.9c0,0,0,0,0,0c0-0.1,0-0.1-0.1-0.2
			c-1.6-6.3-18.3-82.6,20.2-97.2c5,1.6,8.6,7.1,15.4,9.7c13.8,5.3,29.7,6.9,40.7,5.8c4.5,8.5,8.8,23.6,11.6,34.6
			c1.3,4.9,2.1,9.9,2.5,14.8C2547,1096.9,2546.8,1100.7,2546.4,1104.4z"/>
		<path class="st3" d="M2518,1029.2c0,0,8.8-0.4,11.6,1.5c2.8,1.9,17,18.5,17.8,20.8c0,0-17.6-1.5-19.3-0.4
			C2528,1051.2,2534.5,1047.4,2518,1029.2z"/>
		<path class="st15" d="M2658.4,1054.5c0,0,28.1-12,29.2-8.2c1.1,3.7,3.4,20.6-2.6,22.9s-27.7,0-27.7,0L2658.4,1054.5z"/>
		<path class="st23" d="M2596.6,1548.4l-13.7-4.2c0,0-63.5-73.2-49.3-150c0.2-0.8,0.2-1.7-0.2-2.4c0,0,0,0,0,0
			c-2.7-5.4-14.6-29.1-26.8-58.5c-5.9-14.1-11.9-29.5-17-44.8c-3-9.1-5.8-18.1-8-26.8c0-0.1,0-0.1,0-0.2c0-0.1,0-0.1,0-0.1
			c-5.5-21.5-8-41.2-4.6-54.6l68.6-16.4c0,0,6.8,27.7,14.1,63.5c10.1,50.2,21.1,116.3,15.2,144.4
			C2569.6,1423.3,2596.6,1548.4,2596.6,1548.4z"/>
		<path class="st10" d="M2570.8,1112.4c0,0,5.9,6.5,7.7,15c0,0,7.7-7.5,8.2-7.7c0.5-0.2,7.2-4,10.2-8.3c3-4.4,4.9-8,1-14.5
			c-3.9-6.6-15.2-8.4-16.5-7.1c-1.3,1.3-4.9,17.6-4.9,17.6S2576.2,1108.6,2570.8,1112.4z"/>
		<path class="st12" d="M2506.5,1333.3c-5.9-14.1-11.9-29.5-17-44.8c-3-9.1-5.8-18.1-8-26.8c0-0.1,0-0.1,0-0.2c0-0.1,0-0.1,0-0.1
			l5.2-0.6l52.7-5.8c0,0,0.3,4,0.8,10.6C2541.2,1281.6,2524.3,1309.1,2506.5,1333.3z"/>
		<path class="st23" d="M2536.4,1208.9l-30.9,68.6c-0.2-0.1-0.3-0.2-0.5-0.2c-17.5,48.1-42.6,110.2-62.3,131.2
			c-17.5,18.6-59.6,139.5-59.6,139.5l-11.3-4c0,0-14.3-102.3,38-160.4c0.6-0.6,1-1.3,1.1-2.2v0c0.4-5.6,2.4-28.6,6.5-56.9
			c1-6.9,2.1-14,3.4-21.4c1.8-10.6,4-21.6,6.4-32.3c0-0.2,0.1-0.4,0.1-0.5c0.1-2.6,0.3-6.9,1-12.6c0.8-7.7,2.3-17.9,5.1-29.4
			c0.1-0.3,0.2-0.7,0.2-1c6.2-25.4,15-38.2,15-38.2s46.9,13,63.2,14.1C2528.1,1204.2,2536.4,1208.9,2536.4,1208.9z"/>
		<path class="st13" d="M2559.5,1253.9c-2.4,3.7-10,7.9-19.5,11.6l-0.1,0c-10.9,4.3-24.2,7.9-34.3,9.4c-8.6,1.3-14.9,1-15.6-1.8
			c-5.5-21.5-16.6-53-13.2-66.4l68.6-16.4C2545.5,1190.4,2552.3,1218.1,2559.5,1253.9z"/>
		<g>
			<path class="st1" d="M2371.1,1563.2h7.9c2.6-0.4,4.6-1.2,7.3-1.5c4.1-0.5,6,1.1,6.4,1.5c0.1,0.1,0.1,0.1,0.1,0.1h33.5
				c0.8-1.2,0-4-0.8-6c-0.5-1.4-1.7-2.5-3.1-2.9c-3.6-1-10.6-1.9-17-7.7c-3.6-3.3-17.4-12-17.4-12l-0.1,0c-0.3,0-1.7,0.4-8,5.8
				c-3.2,2.7-8.8-3.9-8.8-3.9s-1,0.9-1.8,2.5c-0.6,1.3-1.1,3-0.7,5.1c0.5,3-1.1,8.6-2.4,12.4c-0.8,2.3-1.4,3.9-1.4,3.9
				S2364.3,1562.3,2371.1,1563.2z"/>
			<path class="st29" d="M2369.3,1539c1.9,1.3,5.9,3.9,8.5,4.3c3.6,0.5,10.2-8.6,10.2-8.6l-0.1,0c-0.3,0-1.7,0.4-8,5.8
				c-3.2,2.7-8.8-3.9-8.8-3.9S2370,1537.4,2369.3,1539z"/>
			<path class="st29" d="M2371.1,1563.2h7.9c2.6-0.4,4.6-1.2,7.3-1.5c4.1-0.5,6,1.1,6.4,1.5c0.1,0.1,0.1,0.1,0.1,0.1h33.5
				c0.8-1.2,0-4-0.8-6c-1-0.9-1.3,3.9-1.9,4.7c-0.6,0.8-27.3,0.3-28.9-0.8c-1.5-1.1-6.2-3.1-12.6-1.5c-5.6,1.3-13.9-2.1-16-3
				c-0.8,2.3-1.4,3.9-1.4,3.9S2364.3,1562.3,2371.1,1563.2z"/>
		</g>
		<g>
			<path class="st1" d="M2576.8,1563.2h7.9c2.6-0.4,4.6-1.2,7.3-1.5c4.1-0.5,6,1.1,6.4,1.5c0,0.1,0.1,0.1,0.1,0.1h33.5
				c0.8-1.2,0-4-0.8-6c-0.5-1.4-1.7-2.5-3.1-2.9c-3.6-1-10.6-1.9-17-7.7c-3.6-3.3-17.4-12-17.4-12l-0.1,0c-0.3,0-1.7,0.4-8,5.8
				c-3.2,2.7-8.8-3.9-8.8-3.9s-1,0.9-1.8,2.5c-0.6,1.3-1.1,3-0.7,5.1c0.5,3-1.1,8.6-2.4,12.4c-0.8,2.3-1.4,3.9-1.4,3.9
				S2570,1562.3,2576.8,1563.2z"/>
			<path class="st29" d="M2574.9,1539c1.9,1.3,5.9,3.9,8.5,4.3c3.6,0.5,10.2-8.6,10.2-8.6l-0.1,0c-0.3,0-1.7,0.4-8,5.8
				c-3.2,2.7-8.8-3.9-8.8-3.9S2575.7,1537.4,2574.9,1539z"/>
			<path class="st29" d="M2576.8,1563.2h7.9c2.6-0.4,4.6-1.2,7.3-1.5c4.1-0.5,6,1.1,6.4,1.5c0,0.1,0.1,0.1,0.1,0.1h33.5
				c0.8-1.2,0-4-0.8-6c-1-0.9-1.3,3.9-1.9,4.7c-0.6,0.8-27.3,0.3-28.9-0.8c-1.5-1.1-6.2-3.1-12.6-1.5c-5.6,1.3-13.9-2.1-16-3
				c-0.8,2.3-1.4,3.9-1.4,3.9S2570,1562.3,2576.8,1563.2z"/>
		</g>
		<path class="st16" d="M2546.4,1104.4c-59.1-2.8-84.1-26.5-84.1-26.5l81.9,0c1.3,4.9,2.1,9.9,2.5,14.8
			C2547,1096.9,2546.8,1100.7,2546.4,1104.4z"/>
		<path class="st23" d="M2657.3,1069.1c0,0-47.5,15.6-82,16.5c-29.1,0.7-79.3,4.3-106.1-4.6c-5.1-1.7-8.6-3.9-10.1-6.7
			c-9.3-17.7,6-36,6-36s8.6,0.9,21.6,2.1c32.8,3.1,75,12.8,94.9,12.1c27.8-0.8,53.2,1.1,76.8,1.9L2657.3,1069.1z"/>
		<path class="st3" d="M2469.2,1081.1c-5.1-1.7-8.6-3.9-10.1-6.7c-9.3-17.7,6-36,6-36s8.6,0.9,21.6,2.1
			C2483.7,1043.6,2467.7,1061.2,2469.2,1081.1z"/>
		<path class="st10" d="M2650.9,1054.2c0,0,1.3,10.4-2.3,17.6c0,0,8.1-2.5,8.8-2.5c0.7,0,17,1.3,22.7,0.7c5.8-0.6,8.8-0.2,9.3-10.6
			c0.6-10.4,0.3-14.6-1.7-14.7s-11.4,1.6-28.8,9.1C2658.9,1053.9,2657.9,1054.4,2650.9,1054.2z"/>
		<path class="st13" d="M2448.6,1189c0,0-17.5,21.1-21.3,81.2c0,0,23.6,4.8,28.6,3.3c5.1-1.5,13.9-23,13.9-23s-4.9,21.2-0.2,25.1
			c4.7,3.9,34.3,7.5,34.3,7.5l35.2-78.3C2539.1,1204.8,2490.1,1199.1,2448.6,1189z"/>
		<path class="st9" d="M2446.5,1190.6c0,0,43,21.6,72.5,15.2s27.9-8.5,27.9-8.5l-4.9-17.4c0,0-15.5,8.7-36,7.9s-50.9-14-50.9-14
			L2446.5,1190.6z"/>
	</g>
</g>
</svg>
